<?xml version="1.0" standalone="no"?>
<!DOCTYPE svg PUBLIC "-//W3C//DTD SVG 20010904//EN"
 "http://www.w3.org/TR/2001/REC-SVG-20010904/DTD/svg10.dtd">
<svg version="1.0" xmlns="http://www.w3.org/2000/svg"
 width="260.000000pt" height="260.000000pt" viewBox="0 0 260.000000 260.000000"
 preserveAspectRatio="xMidYMid meet">
<metadata>
Created by potrace 1.14, written by Peter Selinger 2001-2017
</metadata>
<g transform="translate(0.000000,260.000000) scale(0.100000,-0.100000)"
fill="#000000" stroke="none">
<path d="M797 2304 c-3 -3 -23 -7 -46 -10 -23 -3 -72 -14 -109 -25 -242 -74
-386 -253 -391 -485 -5 -238 126 -395 413 -492 56 -19 110 -36 121 -38 11 -2
72 -17 135 -33 63 -17 126 -32 140 -35 90 -18 227 -68 285 -105 107 -68 152
-184 118 -300 -38 -129 -146 -209 -333 -248 -35 -8 -249 -7 -280 1 -14 3 -38
8 -55 12 -70 13 -176 70 -241 127 -50 45 -114 150 -119 196 -1 9 -4 28 -8 44
-4 15 -9 37 -12 50 -4 23 -7 23 -72 16 -38 -4 -90 -9 -118 -11 -58 -4 -59 -8
-39 -118 30 -162 116 -304 240 -399 23 -17 46 -31 52 -31 5 0 15 -6 21 -14 12
-14 165 -72 211 -80 14 -3 25 -5 25 -6 0 -1 11 -3 25 -5 14 -1 45 -5 70 -9 63
-9 234 -10 300 -2 175 23 330 94 433 199 96 98 161 249 160 372 -2 203 -101
359 -292 459 -85 44 -272 104 -431 137 -83 17 -95 20 -146 35 -28 8 -60 16
-70 18 -11 2 -55 18 -99 35 -137 52 -201 143 -188 262 13 110 105 204 233 239
86 23 214 30 320 17 195 -24 300 -111 354 -297 9 -30 17 -57 19 -60 2 -5 136
-4 197 2 l35 4 -1 55 c-2 109 -73 261 -161 344 -128 121 -333 187 -575 184
-64 -1 -119 -3 -121 -5z"/>
<path d="M2119 2276 c-3 -4 -4 -1923 -1 -1934 3 -9 38 -12 128 -12 68 0 125 3
126 8 0 4 2 440 3 969 1 864 0 963 -14 967 -13 4 -239 6 -242 2z"/>
</g>
</svg>
